<svg id="レイヤー_1" data-name="レイヤー 1" xmlns="http://www.w3.org/2000/svg" viewBox="0 0 69 148"><defs><style>.cls-1{fill:#515151;}.cls-2{fill:none;}</style></defs><path class="cls-1" d="M47.64,79l3.9-1.3a4.44,4.44,0,0,1,5.6,2.8l6.9,21.1a4.44,4.44,0,0,1-2.8,5.6l-3.9,1.3L47.64,79Zm-16.8-20.1c6.2,19,10.5,21.3,13.2,21.3l9.5,29.6c-6.5,2.1-17.6-6.6-21.6-11.2-7-8.2-13.7-21.1-18-34.4C9,49,7.64,36.63,8.74,26.33c.9-8.1,5.4-18.7,11.1-20.8l9.8,30.1c-3.2,1.6-4.5,5.9,1.2,23.3Zm-7.5-54.5,3.9-1.3a4.44,4.44,0,0,1,5.6,2.8l7.1,21.7a4.44,4.44,0,0,1-2.8,5.6l-3.9,1.3-9.9-30.1Z" transform="translate(0 17.48)"/><rect id="_Slice_" data-name="&lt;Slice&gt;" class="cls-2" width="69" height="148"/></svg>